<?xml version="1.0" standalone="no"?>
<!DOCTYPE svg PUBLIC "-//W3C//DTD SVG 20010904//EN"
 "http://www.w3.org/TR/2001/REC-SVG-20010904/DTD/svg10.dtd">
<svg version="1.0" xmlns="http://www.w3.org/2000/svg"
 width="358.000000pt" height="358.000000pt" viewBox="0 0 358.000000 358.000000"
 preserveAspectRatio="xMidYMid meet">

<g transform="translate(0.000000,358.000000) scale(0.100000,-0.100000)"
fill="#000000" stroke="none">
<path d="M1504 3536 c-46 -46 -46 -85 0 -131 34 -34 44 -38 80 -36 16 1 17 3
5 18 -13 15 -11 16 23 10 31 -5 40 -2 53 16 33 47 12 113 -45 142 -46 24 -78
19 -116 -19z m111 -16 c-3 -5 -14 -10 -23 -10 -15 0 -15 2 -2 10 20 13 33 13
25 0z"/>
<path d="M1875 3549 c-41 -32 -45 -38 -45 -81 0 -45 53 -108 91 -107 43 1 62
14 65 45 6 61 10 74 28 87 18 13 17 14 -5 41 -34 39 -94 46 -134 15z"/>
<path d="M1883 3212 l-53 -3 0 -144 0 -145 299 1 c313 0 372 -6 391 -41 8 -15
17 -18 40 -13 20 4 30 2 30 -7 0 -8 9 -11 24 -8 20 4 24 1 22 -21 -1 -29 -30
-61 -56 -61 -13 0 -19 -11 -24 -39 -3 -22 -17 -53 -31 -70 -45 -53 -70 -56
-397 -53 l-298 2 0 -540 0 -540 21 0 c12 0 23 8 26 20 9 34 30 22 43 -26 12
-42 15 -45 39 -40 68 16 91 18 91 9 0 -15 -42 -33 -70 -31 -14 1 -39 1 -55 0
-29 -2 -31 -5 -32 -42 -2 -29 2 -40 13 -40 19 0 18 -26 -2 -34 -28 -11 -36 -7
-31 14 8 29 -18 25 -31 -5 -25 -55 -26 -55 151 -55 147 0 164 2 187 20 22 18
23 22 9 33 -11 8 -14 19 -8 34 12 32 31 40 23 9 -4 -17 -2 -26 6 -26 8 0 11
-12 8 -35 -4 -35 -4 -35 37 -36 22 -1 48 -1 58 0 30 4 19 -13 -31 -43 -124
-77 -292 -200 -288 -212 8 -20 -39 -57 -63 -49 -28 9 -89 -29 -102 -63 -6 -14
-7 -72 -3 -137 l7 -112 66 -6 c113 -11 715 3 724 17 6 8 10 8 14 -1 3 -9 27
-13 69 -13 l65 0 -3 133 -3 132 -78 3 c-53 2 -77 -1 -72 -8 3 -5 1 -10 -4 -10
-6 0 -11 4 -11 10 0 6 -63 10 -166 9 -92 0 -168 2 -170 3 -2 2 26 23 61 47 57
39 63 46 54 65 -9 20 -9 20 5 3 16 -21 -8 -34 236 130 l145 98 3 137 3 138
-353 2 -353 3 -3 68 c-2 42 -7 67 -14 67 -9 0 -9 3 0 12 7 7 12 25 12 40 0 28
1 28 64 28 42 0 66 4 69 13 4 10 6 10 6 0 1 -16 541 -19 541 -3 0 5 5 9 11 7
6 -1 13 3 16 9 4 11 -27 25 -71 32 -6 1 -1 8 9 16 16 12 21 11 33 -1 19 -19
26 -10 24 34 -2 40 -22 73 -22 35 0 -27 3 -27 -53 1 -44 23 -45 25 -29 42 13
13 14 19 5 22 -19 7 -15 23 5 23 26 0 34 11 20 27 -6 7 -8 16 -4 20 3 4 13 -3
22 -15 19 -28 34 -28 34 -1 0 11 5 17 10 14 6 -3 10 1 10 9 0 14 -31 16 -256
16 -230 -1 -258 -2 -273 -18 -9 -10 -13 -13 -8 -8 12 17 8 23 -15 23 -13 1
-51 1 -85 2 l-63 1 0 61 c0 39 -4 58 -10 54 -6 -4 -9 -14 -6 -23 7 -23 -41
-59 -57 -43 -9 9 -8 16 0 31 11 17 10 18 -15 17 -31 -2 -37 20 -10 37 13 8 23
8 39 -2 16 -10 24 -10 35 -1 8 6 15 8 16 3 0 -5 4 13 7 39 l6 48 190 4 c203 3
273 14 346 51 74 37 136 124 159 222 11 49 11 53 -10 70 -19 16 -21 24 -15 61
4 23 13 45 21 48 17 6 21 173 3 173 -5 0 -7 4 -4 10 11 18 -57 130 -103 170
-70 62 -137 83 -274 88 -97 3 -121 1 -142 -13 -24 -16 -31 -14 -27 8 0 4 -3 7
-9 7 -5 0 -10 -10 -10 -21 0 -18 4 -20 28 -15 15 4 45 9 67 12 39 6 39 6 22
-12 -12 -13 -34 -19 -70 -21 -28 -1 -59 -3 -68 -3 -20 -2 -20 -60 1 -85 12
-14 12 -18 -1 -26 -19 -12 -35 -5 -31 15 4 23 -25 20 -31 -4 -7 -26 -21 -25
-35 3 l-11 22 0 -22 c-1 -21 -31 -35 -31 -15 0 5 -16 14 -34 22 -29 11 -33 16
-26 31 6 10 7 25 4 33 -4 10 -1 16 9 16 22 0 32 20 16 31 -7 4 -10 12 -5 16 4
4 15 -2 23 -14 19 -29 47 -31 40 -3 -3 10 0 18 5 17 6 -1 13 4 15 11 3 8 -11
12 -49 13 -29 1 -62 2 -73 3 -11 0 -44 0 -72 -2z m197 -253 c0 -12 -17 -12
-24 0 -3 5 -15 7 -26 4 -22 -6 -26 7 -9 24 9 9 18 8 35 -4 13 -8 24 -19 24
-24z m610 -9 c0 -5 -4 -10 -10 -10 -5 0 -10 5 -10 10 0 6 5 10 10 10 6 0 10
-4 10 -10z m-72 -278 c2 -7 -2 -10 -12 -6 -9 3 -16 11 -16 16 0 13 23 5 28
-10z m-78 -182 c0 -5 -5 -10 -11 -10 -5 0 -7 5 -4 10 3 6 8 10 11 10 2 0 4 -4
4 -10z m-40 -23 c0 -2 -10 -12 -22 -23 l-23 -19 19 23 c18 21 26 27 26 19z
m-105 -97 c-3 -5 -11 -10 -16 -10 -6 0 -7 5 -4 10 3 6 11 10 16 10 6 0 7 -4 4
-10z m-378 -292 c-3 -8 -6 -5 -6 6 -1 11 2 17 5 13 3 -3 4 -12 1 -19z m641
-10 c19 -19 14 -30 -8 -18 -11 6 -20 15 -20 20 0 14 14 12 28 -2z m-630 -37
c3 -8 -1 -12 -9 -9 -7 2 -15 10 -17 17 -3 8 1 12 9 9 7 -2 15 -10 17 -17z
m512 15 c0 -3 -4 -8 -10 -11 -5 -3 -10 -1 -10 4 0 6 5 11 10 11 6 0 10 -2 10
-4z m-290 -66 c0 -5 -4 -10 -9 -10 -6 0 -13 5 -16 10 -3 6 1 10 9 10 9 0 16
-4 16 -10z m-271 -212 c-11 -20 -29 -24 -29 -7 0 6 5 20 11 31 9 16 13 18 19
7 5 -7 4 -21 -1 -31z m-89 -60 c0 -7 -5 -20 -10 -28 -8 -12 -10 -9 -10 13 0
15 5 27 10 27 6 0 10 -6 10 -12z m110 -188 c0 -13 -38 -32 -51 -25 -14 10 9
35 32 35 11 0 19 -4 19 -10z m240 -69 c0 -10 -30 -24 -37 -17 -3 3 -2 9 2 15
8 13 35 15 35 2z m350 -41 c0 -5 -7 -10 -16 -10 -8 0 -12 5 -9 10 3 6 10 10
16 10 5 0 9 -4 9 -10z m60 -60 c12 -8 11 -10 -7 -10 -13 0 -23 5 -23 10 0 13
11 13 30 0z m-310 -114 c0 -3 -4 -8 -10 -11 -5 -3 -10 -1 -10 4 0 6 5 11 10
11 6 0 10 -2 10 -4z m50 -97 c0 -11 -27 -12 -34 0 -3 4 -3 11 0 14 8 8 34 -3
34 -14z m-415 -239 c3 -5 -1 -10 -9 -10 -9 0 -16 5 -16 10 0 6 4 10 9 10 6 0
13 -4 16 -10z m305 -30 c10 -5 27 -25 39 -45 21 -35 21 -35 1 -55 -15 -15 -31
-20 -65 -18 -50 3 -60 20 -48 80 9 47 33 59 73 38z m125 -30 c8 -13 -15 -13
-35 0 -12 8 -11 10 7 10 12 0 25 -4 28 -10z m285 -5 c0 -8 -4 -15 -9 -15 -5 0
-11 7 -15 15 -3 9 0 15 9 15 8 0 15 -7 15 -15z m-570 -29 c0 -2 -7 -7 -16 -10
-8 -3 -12 -2 -9 4 6 10 25 14 25 6z m62 -48 c-7 -7 -12 -8 -12 -2 0 14 12 26
19 19 2 -3 -1 -11 -7 -17z m-27 -18 c3 -5 -1 -10 -9 -10 -9 0 -16 5 -16 10 0
6 4 10 9 10 6 0 13 -4 16 -10z m42 -22 c-3 -8 -6 -5 -6 6 -1 11 2 17 5 13 3
-3 4 -12 1 -19z m147 7 c-4 -8 -8 -15 -10 -15 -2 0 -4 7 -4 15 0 8 4 15 10 15
5 0 7 -7 4 -15z"/>
<path d="M1019 3200 c-89 -22 -147 -51 -189 -97 -23 -26 -47 -58 -53 -72 -7
-14 -16 -29 -22 -33 -6 -5 -10 -85 -10 -215 0 -174 3 -216 18 -259 19 -54 55
-97 78 -92 8 2 14 -5 14 -16 0 -13 19 -30 61 -53 76 -42 167 -54 372 -51 115
1 146 -1 153 -13 6 -10 2 -195 -5 -206 -1 -1 -152 -3 -337 -5 l-335 -3 -1 -32
c-1 -18 5 -37 13 -44 20 -17 17 -26 -11 -33 -24 -6 -25 -9 -25 -91 l0 -85 110
-1 c61 -1 120 -2 133 -3 12 -1 31 5 41 13 11 9 16 11 13 4 -5 -8 20 -13 85
-17 127 -9 199 -4 193 11 -2 7 4 17 14 23 22 11 71 -8 71 -27 0 -7 9 -13 20
-13 17 0 20 -7 20 -51 0 -49 13 -87 33 -101 6 -3 1 -17 -12 -34 l-22 -28 -222
-1 c-122 -1 -279 -2 -349 -3 l-128 -2 0 -134 c0 -128 1 -136 22 -150 30 -21
45 -20 53 4 8 26 25 26 18 0 -3 -12 1 -22 10 -26 8 -3 13 -13 10 -23 -3 -12
11 -26 49 -50 29 -18 94 -64 143 -101 50 -37 108 -78 130 -89 l40 -21 18 21
c22 27 27 23 20 -15 -3 -16 -14 -31 -24 -33 -24 -7 -24 -29 -2 -42 17 -9 17
-11 -3 -38 -22 -29 -48 -32 -102 -12 -22 8 -24 14 -19 49 l5 40 -183 0 -183 0
-1 -135 -1 -135 124 0 c90 0 126 3 130 13 3 8 9 6 20 -7 14 -17 19 -18 41 -6
14 8 23 20 21 27 -5 12 17 18 50 14 7 -1 14 8 17 19 8 32 24 23 39 -22 17 -50
39 -58 88 -33 26 14 31 21 26 41 -7 26 5 32 23 11 7 -10 7 -17 0 -24 -13 -13
-2 -36 12 -27 5 3 15 2 22 -3 7 -4 83 -7 170 -5 l157 3 0 133 0 132 -62 46
c-72 52 -120 78 -143 78 -9 0 -14 4 -11 9 8 12 -45 56 -103 86 -25 13 -71 43
-102 67 -31 23 -65 48 -75 55 -15 9 21 12 173 12 171 1 192 3 186 17 -4 10 -1
15 8 14 34 -5 59 1 59 14 0 21 21 31 31 15 5 -8 9 -24 9 -36 0 -13 4 -23 9
-23 14 0 19 84 21 338 0 190 -2 242 -12 242 -10 0 -10 2 0 9 10 6 13 59 11
244 -1 147 -6 237 -12 237 -5 0 -4 6 2 14 8 9 11 50 9 117 -3 100 -4 104 -26
107 -14 2 -29 -4 -37 -15 -13 -17 -14 -17 -20 -1 -6 16 -28 18 -269 16 -240
-2 -265 -1 -309 17 -53 22 -58 32 -66 124 -6 65 -24 90 -36 52 -8 -27 -25 -27
-32 -1 -3 11 -9 20 -14 20 -5 0 -9 -9 -9 -20 0 -11 -4 -20 -10 -20 -5 0 -10 5
-10 10 0 6 -9 10 -21 10 -11 0 -17 5 -14 10 3 6 15 10 26 10 32 0 21 28 -16
40 -40 13 -62 37 -25 27 26 -7 70 18 70 39 0 8 5 14 10 14 6 0 10 7 10 15 0
10 10 15 31 15 23 0 32 5 36 20 8 31 26 18 42 -29 12 -39 16 -42 40 -36 61 15
94 18 87 6 -6 -9 65 -11 277 -11 l284 1 2 145 2 144 -313 -1 c-172 -1 -329 -5
-349 -9z m311 -4 c0 -2 -7 -7 -16 -10 -8 -3 -12 -2 -9 4 6 10 25 14 25 6z
m-200 -35 c-8 -17 -8 -21 3 -21 24 0 15 -57 -11 -75 -12 -9 -23 -14 -23 -11
-1 3 -2 11 -3 16 0 6 -8 15 -16 21 -11 7 -8 8 13 3 21 -5 27 -3 27 10 0 9 -4
16 -10 16 -17 0 -11 42 7 56 23 16 27 11 13 -15z m510 13 c0 -9 -5 -14 -12
-12 -18 6 -21 28 -4 28 9 0 16 -7 16 -16z m-55 -134 c3 -5 -1 -10 -10 -10 -9
0 -13 5 -10 10 3 6 8 10 10 10 2 0 7 -4 10 -10z m-727 -58 c2 -12 -1 -22 -6
-22 -15 0 -34 28 -27 40 10 17 30 6 33 -18z m196 -26 c-3 -8 -12 -17 -19 -20
-19 -7 -31 14 -14 25 21 13 39 11 33 -5z m-148 -232 c3 9 11 16 17 16 6 0 0
-11 -13 -25 -22 -23 -25 -24 -41 -9 -10 9 -25 14 -33 11 -22 -9 -28 4 -9 19
15 10 22 9 45 -8 25 -17 29 -18 34 -4z m-46 -78 c0 -3 -4 -8 -10 -11 -5 -3
-10 -1 -10 4 0 6 5 11 10 11 6 0 10 -2 10 -4z m300 -111 c-7 -8 -18 -15 -24
-15 -6 0 -2 7 8 15 25 19 32 19 16 0z m260 -166 c0 -20 -6 -28 -24 -33 -30 -7
-56 2 -56 19 0 7 -2 20 -5 27 -4 9 3 19 16 24 33 15 69 -4 69 -37z m130 7 c0
-3 -4 -8 -10 -11 -5 -3 -10 -1 -10 4 0 6 5 11 10 11 6 0 10 -2 10 -4z m-40
-180 c0 -3 -4 -8 -10 -11 -5 -3 -10 -1 -10 4 0 6 5 11 10 11 6 0 10 -2 10 -4z
m-436 -171 c-5 -19 -2 -25 10 -25 13 0 15 -6 10 -27 -9 -39 -11 -41 -47 -59
-21 -11 -28 -12 -19 -3 17 18 15 32 -3 25 -17 -6 -65 13 -65 26 0 5 -13 14
-30 19 -16 6 -30 15 -30 20 0 5 -10 9 -22 10 -16 1 -12 4 12 10 19 4 42 5 50
2 8 -4 35 -7 60 -8 33 -1 49 4 58 17 18 25 24 23 16 -7z m-266 -178 c2 -12 -3
-17 -17 -17 -15 0 -21 6 -21 21 0 25 33 22 38 -4z m652 -27 c0 -5 -4 -10 -10
-10 -5 0 -10 5 -10 10 0 6 5 10 10 10 6 0 10 -4 10 -10z m180 6 c0 -11 -19
-15 -25 -6 -3 5 1 10 9 10 9 0 16 -2 16 -4z m-90 -157 c0 -11 -3 -11 -24 -3
-23 9 -20 23 4 17 11 -3 20 -9 20 -14z m-60 -99 c0 -5 -4 -10 -10 -10 -5 0
-10 5 -10 10 0 6 5 10 10 10 6 0 10 -4 10 -10z m-350 -19 c0 -11 -31 -24 -39
-16 -3 3 1 10 9 15 19 12 30 12 30 1z m260 -25 c0 -2 -8 -10 -17 -17 -16 -13
-17 -12 -4 4 13 16 21 21 21 13z m220 -18 c0 -7 -5 -20 -10 -28 -8 -12 -10 -9
-10 13 0 15 5 27 10 27 6 0 10 -6 10 -12z m-375 -27 c-3 -6 -11 -11 -17 -11
-6 0 -6 6 2 15 14 17 26 13 15 -4z m273 -9 c-9 -2 -19 -11 -21 -20 -3 -10 -5
-6 -6 10 -1 22 2 25 22 20 17 -5 18 -7 5 -10z m50 -10 c6 -18 -15 -14 -22 4
-4 10 -1 14 6 12 6 -2 14 -10 16 -16z m-704 -21 c3 -4 -6 -6 -19 -3 -14 2 -25
6 -25 8 0 8 39 4 44 -5z m246 -34 c0 -2 -10 -12 -22 -23 l-23 -19 19 23 c18
21 26 27 26 19z m484 -22 c-4 -8 -8 -15 -10 -15 -2 0 -4 7 -4 15 0 8 4 15 10
15 5 0 7 -7 4 -15z m-634 -9 c0 -3 -4 -8 -10 -11 -5 -3 -10 -1 -10 4 0 6 5 11
10 11 6 0 10 -2 10 -4z m560 -56 c0 -5 -7 -10 -15 -10 -8 0 -15 5 -15 10 0 6
7 10 15 10 8 0 15 -4 15 -10z m-115 -236 c20 -15 20 -16 -4 -12 -14 2 -26 9
-29 16 -5 16 9 15 33 -4z m115 -84 c0 -5 -4 -10 -10 -10 -5 0 -10 5 -10 10 0
6 5 10 10 10 6 0 10 -4 10 -10z m-105 -30 c-3 -5 -11 -10 -16 -10 -6 0 -7 5
-4 10 3 6 11 10 16 10 6 0 7 -4 4 -10z m-110 -29 c10 -17 -12 -21 -25 -6 -10
12 -10 15 3 15 9 0 18 -4 22 -9z m-55 -105 c0 -3 -4 -8 -10 -11 -5 -3 -10 -1
-10 4 0 6 5 11 10 11 6 0 10 -2 10 -4z m-118 -84 c-4 -11 -6 -11 -13 0 -5 7
-9 19 -9 26 0 10 3 10 14 0 7 -7 11 -19 8 -26z m122 -46 c-7 -18 -32 -28 -46
-20 -7 5 -4 12 7 21 25 17 46 17 39 -1z"/>
<path d="M1969 453 c1 -43 1 -133 2 -201 l0 -122 -39 0 -39 0 3 127 c4 150 2
164 -34 181 -53 25 -62 11 -62 -99 0 -62 2 -69 35 -105 19 -21 35 -42 35 -46
0 -14 -39 -48 -55 -48 -11 0 -15 -12 -15 -50 l0 -50 44 0 c39 0 45 3 48 22 3
20 11 24 63 30 33 4 85 5 115 2 42 -4 51 -3 40 6 -12 9 -10 10 10 8 22 -3 25
-7 22 -35 -3 -30 -1 -33 25 -33 15 0 38 3 50 6 21 6 22 9 23 199 l1 192 -38 7
c-21 3 -44 6 -50 6 -10 0 -13 -39 -13 -160 l0 -160 -35 0 -35 0 0 73 c0 41 -3
77 -7 80 -8 8 -7 145 1 184 8 38 -2 49 -52 57 l-43 6 0 -77z m56 -90 c-7 -17
-8 -17 -15 2 -9 24 -2 41 12 27 6 -6 7 -19 3 -29z m-5 -218 c0 -17 -17 -28
-30 -20 -7 4 -7 13 0 26 12 21 30 17 30 -6z m-145 -15 c3 -5 1 -10 -4 -10 -6
0 -11 5 -11 10 0 6 2 10 4 10 3 0 8 -4 11 -10z"/>
<path d="M2319 522 c0 -4 0 -54 0 -112 2 -92 -12 -309 -21 -350 -2 -9 6 -16
19 -18 17 -2 26 4 34 22 10 21 15 23 31 15 11 -6 28 -9 38 -6 11 3 21 -1 24
-10 3 -8 11 -11 17 -7 6 3 15 0 20 -7 21 -33 29 23 29 219 0 128 4 202 10 202
6 0 10 -78 10 -215 l0 -215 60 0 c49 0 61 3 70 20 14 25 32 25 48 0 7 -11 19
-20 27 -20 35 0 44 79 12 102 -15 11 -16 18 -8 41 6 15 8 33 5 40 -3 8 2 20
11 27 24 20 19 65 -9 78 l-24 11 19 38 c11 22 20 56 22 77 2 31 -3 42 -23 57
-24 19 -27 19 -58 3 -35 -17 -115 -13 -127 7 -11 16 -25 10 -25 -11 0 -24 -8
-25 -38 -5 -28 20 -126 10 -118 -11 3 -8 -1 -14 -10 -14 -11 0 -15 6 -11 19 3
13 -1 21 -14 24 -11 3 -19 2 -20 -1z m111 -92 c0 -33 -3 -40 -19 -40 -11 0
-21 -6 -24 -12 -2 -8 -8 -9 -13 -4 -5 5 -4 11 4 13 7 3 12 22 12 44 0 32 3 39
20 39 17 0 20 -7 20 -40z m248 8 c-2 -16 -12 -24 -35 -29 -27 -5 -32 -3 -36
17 -5 30 -1 34 40 34 30 0 34 -3 31 -22z m-28 -83 c0 -9 10 -15 26 -15 14 0
23 -4 19 -10 -3 -5 -24 -10 -46 -10 -38 0 -39 1 -39 35 0 33 2 35 20 25 11 -6
20 -17 20 -25z m-220 -51 c0 -41 -2 -45 -20 -40 -11 3 -20 8 -20 11 0 3 0 21
0 40 0 28 4 35 20 35 17 0 20 -7 20 -46z m256 -40 c-3 -9 -6 -23 -6 -31 0 -14
-3 -14 -20 2 -28 25 -25 45 6 45 20 0 25 -4 20 -16z m-48 -82 c13 -30 13 -36
-3 -72 -10 -22 -22 -40 -27 -40 -5 0 -7 4 -4 9 3 4 1 22 -4 39 -5 19 -5 34 1
37 5 4 9 25 10 48 0 23 3 35 6 27 3 -8 12 -30 21 -48z m-208 -17 c0 -52 -1
-55 -25 -55 -27 0 -29 8 -19 73 5 27 11 37 25 37 16 0 19 -8 19 -55z"/>
<path d="M883 491 c-56 -100 -78 -126 -111 -129 -26 -3 -32 -8 -32 -27 0 -34
10 -55 26 -55 8 0 14 -10 14 -24 0 -13 6 -27 13 -29 10 -4 10 -6 0 -6 -10 -1
-13 -26 -13 -91 l0 -90 45 0 c33 0 45 4 45 15 0 12 17 15 95 15 78 0 95 -3 95
-15 0 -11 12 -15 45 -15 l45 0 0 76 c0 41 5 84 11 95 8 15 7 24 -2 36 -11 13
-8 20 19 44 35 31 41 49 17 49 -8 0 -15 5 -15 11 0 18 -90 92 -115 95 -37 4
-51 -21 -24 -40 13 -8 20 -18 17 -21 -6 -6 -160 -24 -166 -20 -1 1 16 21 38
44 48 50 75 89 67 97 -3 4 -26 9 -51 11 -43 5 -46 4 -63 -26z m67 -21 c0 -5
-5 -10 -11 -10 -5 0 -7 5 -4 10 3 6 8 10 11 10 2 0 4 -4 4 -10z m170 -162 c20
-34 19 -48 -2 -30 -9 7 -19 6 -32 -4 -22 -16 -215 -19 -251 -4 -24 9 -27 8
126 35 52 9 102 20 110 26 22 14 28 11 49 -23z m-270 2 c0 -12 -28 -25 -36
-17 -9 9 6 27 22 27 8 0 14 -5 14 -10z m213 -132 c-3 -35 -7 -64 -8 -66 -6 -7
-162 -5 -173 2 -7 4 -12 27 -12 51 0 43 1 44 36 51 19 3 55 4 80 1 33 -3 44
-1 44 9 0 8 9 14 20 14 18 0 19 -5 13 -62z"/>
<path d="M1484 511 c4 -6 -4 -16 -18 -23 -19 -8 -26 -19 -26 -40 0 -31 5 -30
-140 -32 -48 -1 -55 -4 -55 -21 0 -17 8 -20 59 -23 41 -2 62 1 67 10 7 10 9
10 9 1 0 -7 11 -13 25 -13 14 0 25 -6 25 -12 0 -26 -22 -94 -43 -138 -23 -46
-101 -134 -126 -142 -22 -6 -5 -38 20 -38 28 0 141 81 175 125 14 19 32 51 39
70 l12 36 31 -64 c18 -36 50 -84 72 -108 22 -24 40 -48 40 -52 0 -5 8 -7 17
-5 12 2 17 13 18 33 0 22 5 30 25 35 l24 6 -24 17 c-14 10 -26 13 -28 7 -2 -5
-8 -10 -13 -10 -4 0 -6 7 -3 15 4 9 -9 32 -34 59 -31 34 -102 150 -102 168 0
2 47 2 105 1 98 -2 105 -1 105 17 0 11 -11 27 -24 35 -20 14 -29 14 -48 4 -13
-7 -26 -17 -30 -23 -5 -8 -8 -7 -8 1 0 7 -8 12 -17 11 -10 -1 -32 0 -50 0 -31
2 -32 4 -35 50 -3 41 -6 47 -27 50 -15 2 -21 0 -17 -7z"/>
</g>
</svg>
